<svg id="visual" viewBox="0 0 900 600" width="900" height="600" xmlns="http://www.w3.org/2000/svg" xmlns:xlink="http://www.w3.org/1999/xlink" version="1.1"><rect x="0" y="0" width="900" height="600" fill="#001220"></rect><defs><linearGradient id="grad1_0" x1="33.3%" y1="0%" x2="100%" y2="100%"><stop offset="20%" stop-color="#fbae3c" stop-opacity="1"></stop><stop offset="80%" stop-color="#fbae3c" stop-opacity="1"></stop></linearGradient></defs><defs><linearGradient id="grad1_1" x1="33.3%" y1="0%" x2="100%" y2="100%"><stop offset="20%" stop-color="#fbae3c" stop-opacity="1"></stop><stop offset="80%" stop-color="#001220" stop-opacity="1"></stop></linearGradient></defs><defs><linearGradient id="grad2_0" x1="0%" y1="0%" x2="66.7%" y2="100%"><stop offset="20%" stop-color="#fbae3c" stop-opacity="1"></stop><stop offset="80%" stop-color="#fbae3c" stop-opacity="1"></stop></linearGradient></defs><defs><linearGradient id="grad2_1" x1="0%" y1="0%" x2="66.7%" y2="100%"><stop offset="20%" stop-color="#001220" stop-opacity="1"></stop><stop offset="80%" stop-color="#fbae3c" stop-opacity="1"></stop></linearGradient></defs><g transform="translate(900, 0)"><path d="M0 297.5C-39.5 293.5 -79 289.6 -113.8 274.8C-148.7 260.1 -179 234.5 -206.5 206.5C-234 178.5 -258.8 148.1 -273.5 113.3C-288.2 78.5 -292.8 39.2 -297.5 0L0 0Z" fill="#96446e"></path><path d="M0 148.7C-19.7 146.8 -39.5 144.8 -56.9 137.4C-74.4 130 -89.5 117.2 -103.2 103.2C-117 89.2 -129.4 74 -136.7 56.6C-144.1 39.2 -146.4 19.6 -148.7 0L0 0Z" fill="#fbae3c"></path></g><g transform="translate(0, 600)"><path d="M0 -297.5C40.1 -294.2 80.2 -290.9 113.8 -274.8C147.4 -258.7 174.5 -229.7 201.5 -201.5C228.6 -173.3 255.6 -146 271.6 -112.5C287.6 -79.1 292.5 -39.5 297.5 0L0 0Z" fill="#96446e"></path><path d="M0 -148.7C20.1 -147.1 40.1 -145.5 56.9 -137.4C73.7 -129.3 87.2 -114.9 100.8 -100.8C114.3 -86.7 127.8 -73 135.8 -56.3C143.8 -39.5 146.3 -19.8 148.7 0L0 0Z" fill="#fbae3c"></path></g></svg>